# xmcd CD database file
#
# Track frame offsets:
#	150
#	31221
#	57799
#	78503
#	104256
#	132384
#	157171
#	178613
#	201816
#	224828
#	246952
#	257815
#	269195
#	281532
#	295237
#	315682
#
# Disc length: 4389 seconds
#
# Revision: 0
# Processed by: cddbd v1.5.2PL0 Copyright (c) Steve Scherf et al.
# Submitted via: CDex 1.70beta2
#
DISCID=01112310
DTITLE=NANDO CORDEL - DOCE LUZ
DYEAR=1900
DGENRE=New Age
TTITLE0=MINHA TRANQUILIDADE
TTITLE1=HERDEIRO DO UNIVERSO
TTITLE2=NAS ASAS DO MEU BEM
TTITLE3=SUBLIME AMIGO
TTITLE4=SORRISO DE CRIANCA
TTITLE5=DOCE LUZ
TTITLE6=LIVRE ARBITRIO
TTITLE7=O CEU ESTA EM NOS
TTITLE8=PRIMEIRO PASSO
TTITLE9=O AZUL DA TERRA
TTITLE10=MANHA DOURADA
TTITLE11=BRINCANDO COM AS ESTRELAS
TTITLE12=MARE DO PLENILUNIO
TTITLE13=AGUAS TRANQUILAS
TTITLE14=COQUEIROS DA PRAIA
TTITLE15=HORIZONTES DE PAZ
EXTD=
EXTT0=
EXTT1=
EXTT2=
EXTT3=
EXTT4=
EXTT5=
EXTT6=
EXTT7=
EXTT8=
EXTT9=
EXTT10=
EXTT11=
EXTT12=
EXTT13=
EXTT14=
EXTT15=
PLAYORDER=
